<mxfile host="app.diagrams.net" modified="2023-06-09T12:37:50.352Z" agent="Mozilla/5.0 (Macintosh; Intel Mac OS X 10_15_7) AppleWebKit/537.36 (KHTML, like Gecko) Chrome/114.0.0.0 Safari/537.36" version="21.3.8" etag="_xY-EWeJTCrnIpULLBg-" type="github">
  <diagram name="Page-1" id="z2Y-K7kYCVoflhXT7TgN">
    <mxGraphModel>
      <root>
        <mxCell id="0" />
        <mxCell id="1" parent="0" />
      </root>
    </mxGraphModel>
  </diagram>
</mxfile>
